<svg width="256" height="256" viewBox="0 0 256 256" fill="none" xmlns="http://www.w3.org/2000/svg">
<path fill-rule="evenodd" clip-rule="evenodd" d="M183.216 79.6657C183.216 110.351 158.236 135.331 127.551 135.331C96.8655 135.331 71.8849 110.351 71.8849 79.6657C71.8849 48.9805 96.8655 24 127.551 24C158.236 24 183.216 48.9805 183.216 79.6657ZM127.54 149.249C169.29 149.249 203.315 182.788 204.081 224.328L204.081 224.33C204.151 224.817 204.22 225.303 204.22 225.789C204.22 229.616 201.089 232.747 197.262 232.747H197.123H57.9582C54.1311 232.747 51 229.616 51 225.789C51 183.552 85.3035 149.249 127.54 149.249Z" fill="url(#paint0_linear_57_85)"/>
<path fill-rule="evenodd" clip-rule="evenodd" d="M81.4099 232.747H197.123H197.262C201.089 232.747 204.22 229.616 204.22 225.789C204.22 225.302 204.151 224.816 204.081 224.33L204.081 224.328C203.315 182.788 169.29 149.249 127.54 149.249C124.428 149.249 121.358 149.435 118.342 149.797L81.4099 232.747ZM124.812 135.265C125.719 135.309 126.632 135.331 127.551 135.331C158.236 135.331 183.216 110.351 183.216 79.6655C183.216 64.39 177.026 50.5282 167.022 40.4581L124.812 135.265Z" fill="url(#paint1_linear_57_85)"/>
<defs>
<linearGradient id="paint0_linear_57_85" x1="125.98" y1="106.629" x2="199.311" y2="125.603" gradientUnits="userSpaceOnUse">
<stop stop-color="#00CCF9"/>
<stop offset="1" stop-color="#5DE6FF"/>
</linearGradient>
<linearGradient id="paint1_linear_57_85" x1="50.5068" y1="102.285" x2="196.139" y2="140.277" gradientUnits="userSpaceOnUse">
<stop stop-color="#6462E4"/>
<stop offset="1" stop-color="#7D7DF2"/>
</linearGradient>
</defs>
</svg>
