<svg width="188" height="60" viewBox="0 0 188 60" fill="none" xmlns="http://www.w3.org/2000/svg">
<path d="M173.372 47.5379C163.36 47.5379 155.239 39.3465 155.239 29.1949C155.239 19.1132 163.36 10.9918 173.372 10.9918C178.483 10.9918 182.964 13.0222 186.254 16.2427C187.655 17.5729 187.655 19.6733 186.254 21.0735C185.624 21.6336 184.854 21.9837 183.944 21.9837C183.104 21.9837 182.194 21.6336 181.564 21.0035C179.533 18.8331 176.593 17.6429 173.372 17.6429C167.071 17.6429 161.82 22.8238 161.82 29.1949C161.82 35.6359 167.071 40.8168 173.372 40.8168C176.663 40.8168 179.533 39.5566 181.564 37.4562C182.334 36.7561 183.174 36.4761 183.944 36.4761C184.854 36.4761 185.624 36.7561 186.254 37.4562C187.655 38.6464 187.655 40.8168 186.254 42.147C182.964 45.4376 178.483 47.5379 173.372 47.5379Z" fill="url(#paint0_linear_22_300)"/>
<path d="M142.083 14.3524C142.083 12.5321 143.623 10.9918 145.373 10.9918C147.404 10.9918 148.804 12.5321 148.804 14.3524V44.1774C148.804 45.9277 147.404 47.4679 145.373 47.4679C143.623 47.4679 142.083 45.9277 142.083 44.1774V14.3524ZM141.593 3.92065C141.593 1.75029 143.203 0 145.373 0C147.614 0 149.364 1.75029 149.364 3.92065C149.364 6.16103 147.614 7.91132 145.373 7.91132C143.203 7.91132 141.593 6.16103 141.593 3.92065Z" fill="url(#paint1_linear_22_300)"/>
<path d="M129.088 29.1949C129.088 22.8238 123.907 17.6429 117.606 17.6429C111.165 17.6429 105.984 22.8238 105.984 29.1949C105.984 35.6359 111.165 40.8168 117.606 40.8168C123.907 40.8168 129.088 35.6359 129.088 29.1949ZM99.3332 29.1949C99.3332 19.1132 107.455 10.9918 117.606 10.9918C127.618 10.9918 135.739 19.1132 135.739 29.1949C135.739 39.3465 127.618 47.4679 117.606 47.4679C112.845 47.4679 108.645 45.3675 105.984 42.147V56.7794C105.984 58.5998 104.514 60 102.554 60C100.803 60 99.3332 58.5998 99.3332 56.7794V29.1949Z" fill="url(#paint2_linear_22_300)"/>
<path d="M60.3651 31.2252V14.2824C60.3651 12.4621 61.7653 10.9918 63.6557 10.9918C65.546 10.9918 66.9462 12.4621 66.9462 14.2824V31.2252C66.9462 36.4761 71.3569 40.8168 76.5378 40.8168C81.7187 40.8168 85.9894 36.4761 85.9894 31.2252V14.2824C85.9894 12.4621 87.5997 10.9918 89.3499 10.9918C91.1702 10.9918 92.7105 12.4621 92.7105 14.2824V31.2252C92.7105 40.1867 85.3593 47.5379 76.5378 47.5379C67.5763 47.5379 60.3651 40.1867 60.3651 31.2252Z" fill="url(#paint3_linear_22_300)"/>
<path fill-rule="evenodd" clip-rule="evenodd" d="M32.9188 14.5667C32.9188 22.0452 26.8306 28.1334 19.3521 28.1334C11.8736 28.1334 5.7854 22.0452 5.7854 14.5667C5.7854 7.08819 11.8736 1 19.3521 1C26.8306 1 32.9188 7.08819 32.9188 14.5667ZM19.3498 31.5254C29.5248 31.5254 37.8174 39.6996 38.004 49.8236L38.004 49.824C38.021 49.9426 38.0379 50.061 38.0379 50.1796C38.0379 51.1123 37.2748 51.8754 36.3421 51.8754H36.3081H2.39139C1.45866 51.8754 0.695557 51.1123 0.695557 50.1796C0.695557 39.8857 9.0559 31.5254 19.3498 31.5254Z" fill="url(#paint4_linear_22_300)"/>
<defs>
<linearGradient id="paint0_linear_22_300" x1="163.481" y1="17.7422" x2="163.481" y2="64.9708" gradientUnits="userSpaceOnUse">
<stop stop-color="white"/>
<stop offset="1" stop-color="#999999"/>
</linearGradient>
<linearGradient id="paint1_linear_22_300" x1="163.481" y1="17.7422" x2="163.481" y2="64.9708" gradientUnits="userSpaceOnUse">
<stop stop-color="white"/>
<stop offset="1" stop-color="#999999"/>
</linearGradient>
<linearGradient id="paint2_linear_22_300" x1="163.481" y1="17.7422" x2="163.481" y2="64.9708" gradientUnits="userSpaceOnUse">
<stop stop-color="white"/>
<stop offset="1" stop-color="#999999"/>
</linearGradient>
<linearGradient id="paint3_linear_22_300" x1="163.481" y1="17.7422" x2="163.481" y2="64.9708" gradientUnits="userSpaceOnUse">
<stop stop-color="white"/>
<stop offset="1" stop-color="#999999"/>
</linearGradient>
<linearGradient id="paint4_linear_22_300" x1="0.695557" y1="10" x2="45.1956" y2="30" gradientUnits="userSpaceOnUse">
<stop stop-color="#00CCF9"/>
<stop offset="0.5" stop-color="#5DE6FF"/>
<stop offset="0.5" stop-color="#6462E4"/>
<stop offset="1" stop-color="#7D7DF2"/>
</linearGradient>
</defs>
</svg>
